{
  "asset": {
    "version": "2.0",
    "generator": "THREE.GLTFExporter"
  },
  "scenes": [
    {
      "nodes": [
        3,
        5,
        6
      ],
      "name": "scene-0"
    }
  ],
  "scene": 0,
  "nodes": [
    {
      "name": "node-0",
      "mesh": 0
    },
    {
      "matrix": [
        1,
        0,
        0,
        0,
        0,
        1,
        0,
        0,
        0,
        0,
        1,
        0,
        -0.008043753880933036,
        2.431197225767529,
        18.8417491631942,
        1
      ],
      "children": [
        0
      ]
    },
    {
      "matrix": [
        1,
        0,
        0,
        0,
        0,
        1,
        0,
        0,
        0,
        0,
        1,
        0,
        0.008043753880933036,
        -2.431197225767529,
        -18.8417491631942,
        1
      ],
      "extras": {
        "isTransformNode": 1
      },
      "children": [
        1
      ]
    },
    {
      "children": [
        2
      ]
    },
    {
      "matrix": [
        1,
        0,
        0,
        0,
        0,
        1,
        0,
        0,
        0,
        0,
        1,
        0,
        -30.2502442443753,
        15.12512212218765,
        15.12512212218765,
        1
      ],
      "name": "headLightNode",
      "extras": {
        "isHeadLight": 1,
        "gltfExtensions": {
          "KHR_lights_punctual": {
            "light": 0
          }
        }
      }
    },
    {
      "matrix": [
        0.8638395527585255,
        0,
        0.5037670365257642,
        0,
        0.077723999664174,
        0.9880262919205748,
        -0.1332780039987195,
        0,
        -0.4977350770903675,
        0.15428560034455327,
        0.8534961901263337,
        0,
        -46.42011768593178,
        11.96031873694454,
        60.76964485044144,
        1
      ],
      "camera": 0,
      "children": [
        4
      ]
    },
    {
      "matrix": [
        0,
        0,
        0,
        0,
        0,
        0,
        0,
        0,
        -12.47310660386933,
        24.94621320773866,
        -12.473106603869335,
        0,
        -29.84652080093874,
        59.74142456798832,
        -45.33571831217772,
        1
      ],
      "name": "keyLightNode",
      "extras": {
        "isKeyLight": 1,
        "gltfExtensions": {
          "KHR_lights_punctual": {
            "light": 1
          }
        }
      }
    }
  ],
  "bufferViews": [
    {
      "buffer": 0,
      "byteOffset": 0,
      "byteLength": 10284,
      "target": 34962,
      "byteStride": 12
    },
    {
      "buffer": 0,
      "byteOffset": 10284,
      "byteLength": 10284,
      "target": 34962,
      "byteStride": 12
    },
    {
      "buffer": 0,
      "byteOffset": 20568,
      "byteLength": 6856,
      "target": 34962,
      "byteStride": 8
    },
    {
      "buffer": 0,
      "byteOffset": 27424,
      "byteLength": 7668,
      "target": 34963
    }
  ],
  "buffers": [
    {
      "byteLength": 35092,
      "uri": "data:application/octet-stream;base64,"
    }
  ],
  "accessors": [
    {
      "bufferView": 0,
      "componentType": 5126,
      "count": 857,
      "max": [
        0.9931541681289673,
        0.9998665452003479,
        0.9996179938316345
      ],
      "min": [
        -0.9931541681289673,
        -0.9998571276664734,
        -0.9974899888038635
      ],
      "type": "VEC3"
    },
    {
      "bufferView": 1,
      "componentType": 5126,
      "count": 857,
      "max": [
        12.571962356567383,
        23.73631477355957,
        -0.6425859928131104
      ],
      "min": [
        -10.290580749511719,
        -21.88841438293457,
        -34.63030242919922
      ],
      "type": "VEC3"
    },
    {
      "bufferView": 2,
      "componentType": 5126,
      "count": 857,
      "max": [
        0.9924700260162354,
        -0.008314000442624092
      ],
      "min": [
        0.0047109997831285,
        -0.9947479963302612
      ],
      "type": "VEC2"
    },
    {
      "bufferView": 3,
      "componentType": 5123,
      "count": 3834,
      "max": [
        856
      ],
      "min": [
        0
      ],
      "type": "SCALAR"
    }
  ],
  "materials": [
    {
      "pbrMetallicRoughness": {
        "baseColorFactor": [
          0.6400000000000001,
          0.6400000000000001,
          0.6400000000000001,
          1
        ],
        "metallicFactor": 0,
        "roughnessFactor": 1,
        "baseColorTexture": {
          "index": 0
        }
      },
      "doubleSided": true,
      "name": "cat-textured",
      "extras": {
        "__iag_": true
      }
    }
  ],
  "textures": [
    {
      "sampler": 0,
      "source": 0
    }
  ],
  "samplers": [
    {
      "magFilter": 9729,
      "minFilter": 9987
    }
  ],
  "images": [
    {
      "mimeType": "image/png",
      "uri": "data:image/png;base64,"
    }
  ],
  "meshes": [
    {
      "primitives": [
        {
          "mode": 4,
          "attributes": {
            "NORMAL": 0,
            "POSITION": 1,
            "TEXCOORD_0": 2
          },
          "indices": 3,
          "material": 0
        }
      ]
    }
  ],
  "cameras": [
    {
      "type": "perspective",
      "perspective": {
        "aspectRatio": 1,
        "yfov": 0.7853981633974483,
        "zfar": 2000000,
        "znear": 0.1000000014901161
      }
    }
  ]
}