{
  "asset": {
    "version": "2.0",
    "generator": "THREE.GLTFExporter"
  },
  "scenes": [
    {
      "nodes": [
        6
      ],
      "name": "scene-0"
    }
  ],
  "scene": 0,
  "nodes": [
    {
      "name": "buffer-0-mesh-0_0",
      "mesh": 0
    },
    {
      "name": "buffer-0-mesh-0_1",
      "mesh": 1
    },
    {
      "name": "buffer-0-mesh-0_2",
      "mesh": 2
    },
    {
      "name": "buffer-0-mesh-0_3",
      "mesh": 3
    },
    {
      "name": "buffer-0-mesh-0_4",
      "mesh": 4
    },
    {
      "name": "buffer-0-mesh-0_5",
      "mesh": 5
    },
    {
      "name": "node-0",
      "children": [
        0,
        1,
        2,
        3,
        4,
        5
      ]
    }
  ],
  "bufferViews": [
    {
      "buffer": 0,
      "byteOffset": 0,
      "byteLength": 18720,
      "target": 34962,
      "byteStride": 12
    },
    {
      "buffer": 0,
      "byteOffset": 18720,
      "byteLength": 18720,
      "target": 34962,
      "byteStride": 12
    },
    {
      "buffer": 0,
      "byteOffset": 37440,
      "byteLength": 12480,
      "target": 34962,
      "byteStride": 8
    },
    {
      "buffer": 0,
      "byteOffset": 49920,
      "byteLength": 3120,
      "target": 34963
    },
    {
      "buffer": 0,
      "byteOffset": 53040,
      "byteLength": 10512,
      "target": 34962,
      "byteStride": 12
    },
    {
      "buffer": 0,
      "byteOffset": 63552,
      "byteLength": 10512,
      "target": 34962,
      "byteStride": 12
    },
    {
      "buffer": 0,
      "byteOffset": 74064,
      "byteLength": 7008,
      "target": 34962,
      "byteStride": 8
    },
    {
      "buffer": 0,
      "byteOffset": 81072,
      "byteLength": 1752,
      "target": 34963
    },
    {
      "buffer": 0,
      "byteOffset": 82824,
      "byteLength": 78048,
      "target": 34962,
      "byteStride": 12
    },
    {
      "buffer": 0,
      "byteOffset": 160872,
      "byteLength": 78048,
      "target": 34962,
      "byteStride": 12
    },
    {
      "buffer": 0,
      "byteOffset": 238920,
      "byteLength": 52032,
      "target": 34962,
      "byteStride": 8
    },
    {
      "buffer": 0,
      "byteOffset": 290952,
      "byteLength": 13008,
      "target": 34963
    },
    {
      "buffer": 0,
      "byteOffset": 303960,
      "byteLength": 5760,
      "target": 34962,
      "byteStride": 12
    },
    {
      "buffer": 0,
      "byteOffset": 309720,
      "byteLength": 5760,
      "target": 34962,
      "byteStride": 12
    },
    {
      "buffer": 0,
      "byteOffset": 315480,
      "byteLength": 3840,
      "target": 34962,
      "byteStride": 8
    },
    {
      "buffer": 0,
      "byteOffset": 319320,
      "byteLength": 960,
      "target": 34963
    },
    {
      "buffer": 0,
      "byteOffset": 320280,
      "byteLength": 28440,
      "target": 34962,
      "byteStride": 12
    },
    {
      "buffer": 0,
      "byteOffset": 348720,
      "byteLength": 28440,
      "target": 34962,
      "byteStride": 12
    },
    {
      "buffer": 0,
      "byteOffset": 377160,
      "byteLength": 18960,
      "target": 34962,
      "byteStride": 8
    },
    {
      "buffer": 0,
      "byteOffset": 396120,
      "byteLength": 4740,
      "target": 34963
    },
    {
      "buffer": 0,
      "byteOffset": 400860,
      "byteLength": 3456,
      "target": 34962,
      "byteStride": 12
    },
    {
      "buffer": 0,
      "byteOffset": 404316,
      "byteLength": 3456,
      "target": 34962,
      "byteStride": 12
    },
    {
      "buffer": 0,
      "byteOffset": 407772,
      "byteLength": 2304,
      "target": 34962,
      "byteStride": 8
    },
    {
      "buffer": 0,
      "byteOffset": 410076,
      "byteLength": 576,
      "target": 34963
    }
  ],
  "buffers": [
    {
      "byteLength": 410652,
      "uri": "data:application/octet-stream;base64,"
    }
  ],
  "accessors": [
    {
      "bufferView": 0,
      "componentType": 5126,
      "count": 1560,
      "max": [
        0.9988542199134827,
        0.9999747276306152,
        0.9970870614051819
      ],
      "min": [
        -0.9988542199134827,
        -0.9995230436325073,
        -0.9500666856765747
      ],
      "type": "VEC3"
    },
    {
      "bufferView": 1,
      "componentType": 5126,
      "count": 1560,
      "max": [
        7.01007604598999,
        -1.402603030204773,
        7.365455150604248
      ],
      "min": [
        -7.01007604598999,
        -1.750458002090454,
        -7.584650039672852
      ],
      "type": "VEC3"
    },
    {
      "bufferView": 2,
      "componentType": 5126,
      "count": 1560,
      "max": [
        0.875,
        0
      ],
      "min": [
        0.125,
        -1
      ],
      "type": "VEC2"
    },
    {
      "bufferView": 3,
      "componentType": 5123,
      "count": 1560,
      "max": [
        1559
      ],
      "min": [
        0
      ],
      "type": "SCALAR"
    },
    {
      "bufferView": 4,
      "componentType": 5126,
      "count": 876,
      "max": [
        0.9999973177909851,
        0.015430978499352932,
        0.9999755024909973
      ],
      "min": [
        -0.9999973177909851,
        -0.9999908804893494,
        -0.9999943375587463
      ],
      "type": "VEC3"
    },
    {
      "bufferView": 5,
      "componentType": 5126,
      "count": 876,
      "max": [
        5.1791791915893555,
        1.7114330530166626,
        5.207828044891357
      ],
      "min": [
        -5.1791791915893555,
        -0.46237900853157043,
        -8.93336009979248
      ],
      "type": "VEC3"
    },
    {
      "bufferView": 6,
      "componentType": 5126,
      "count": 876,
      "max": [
        0.44895800948143005,
        0
      ],
      "min": [
        0,
        -1
      ],
      "type": "VEC2"
    },
    {
      "bufferView": 7,
      "componentType": 5123,
      "count": 876,
      "max": [
        875
      ],
      "min": [
        0
      ],
      "type": "SCALAR"
    },
    {
      "bufferView": 8,
      "componentType": 5126,
      "count": 6504,
      "max": [
        0.9984041452407837,
        0.9999549984931946,
        0.9952008724212646
      ],
      "min": [
        -0.9984040260314941,
        -1.0000001192092896,
        -0.9951404333114624
      ],
      "type": "VEC3"
    },
    {
      "bufferView": 9,
      "componentType": 5126,
      "count": 6504,
      "max": [
        6.680410861968994,
        6.37064790725708,
        11.01064682006836
      ],
      "min": [
        -6.680410861968994,
        -1.7608469724655151,
        -10.610928535461426
      ],
      "type": "VEC3"
    },
    {
      "bufferView": 10,
      "componentType": 5126,
      "count": 6504,
      "max": [
        1,
        0
      ],
      "min": [
        0,
        -1
      ],
      "type": "VEC2"
    },
    {
      "bufferView": 11,
      "componentType": 5123,
      "count": 6504,
      "max": [
        6503
      ],
      "min": [
        0
      ],
      "type": "SCALAR"
    },
    {
      "bufferView": 12,
      "componentType": 5126,
      "count": 480,
      "max": [
        0.8931372165679932,
        0.9696025252342224,
        0.7611185312271118
      ],
      "min": [
        -0.8931373357772827,
        0.4399275779724121,
        -0.8361071348190308
      ],
      "type": "VEC3"
    },
    {
      "bufferView": 13,
      "componentType": 5126,
      "count": 480,
      "max": [
        5.713741779327393,
        7.775252819061279,
        4.117117881774902
      ],
      "min": [
        -5.713741779327393,
        2.6331989765167236,
        -8.598483085632324
      ],
      "type": "VEC3"
    },
    {
      "bufferView": 14,
      "componentType": 5126,
      "count": 480,
      "max": [
        1,
        0
      ],
      "min": [
        0,
        -1
      ],
      "type": "VEC2"
    },
    {
      "bufferView": 15,
      "componentType": 5123,
      "count": 480,
      "max": [
        479
      ],
      "min": [
        0
      ],
      "type": "SCALAR"
    },
    {
      "bufferView": 16,
      "componentType": 5126,
      "count": 2370,
      "max": [
        0.9997627139091492,
        0.9991120100021362,
        0.9996706247329712
      ],
      "min": [
        -0.9997627139091492,
        -0.2629525661468506,
        -0.9993414282798767
      ],
      "type": "VEC3"
    },
    {
      "bufferView": 17,
      "componentType": 5126,
      "count": 2370,
      "max": [
        6.3798508644104,
        7.681344985961914,
        5.339147090911865
      ],
      "min": [
        -6.3798508644104,
        1.2388030290603638,
        -9.48603630065918
      ],
      "type": "VEC3"
    },
    {
      "bufferView": 18,
      "componentType": 5126,
      "count": 2370,
      "max": [
        1,
        0
      ],
      "min": [
        0,
        -1
      ],
      "type": "VEC2"
    },
    {
      "bufferView": 19,
      "componentType": 5123,
      "count": 2370,
      "max": [
        2369
      ],
      "min": [
        0
      ],
      "type": "SCALAR"
    },
    {
      "bufferView": 20,
      "componentType": 5126,
      "count": 288,
      "max": [
        0.9970526695251465,
        0.930169403553009,
        0.8480338454246521
      ],
      "min": [
        -0.9931676983833313,
        -0.930169403553009,
        -0.8480338454246521
      ],
      "type": "VEC3"
    },
    {
      "bufferView": 21,
      "componentType": 5126,
      "count": 288,
      "max": [
        1.3040930032730103,
        5.763841152191162,
        9.227712631225586
      ],
      "min": [
        -1.3040930032730103,
        5.4030442237854,
        8.64051342010498
      ],
      "type": "VEC3"
    },
    {
      "bufferView": 22,
      "componentType": 5126,
      "count": 288,
      "max": [
        0.875,
        0
      ],
      "min": [
        0.125,
        -1
      ],
      "type": "VEC2"
    },
    {
      "bufferView": 23,
      "componentType": 5123,
      "count": 288,
      "max": [
        287
      ],
      "min": [
        0
      ],
      "type": "SCALAR"
    }
  ],
  "materials": [
    {
      "pbrMetallicRoughness": {
        "baseColorFactor": [
          0.01,
          0.01,
          0.01,
          1
        ],
        "metallicFactor": 0,
        "roughnessFactor": 0.9699476628648295
      },
      "doubleSided": true,
      "name": "lambert5SG"
    },
    {
      "pbrMetallicRoughness": {
        "baseColorFactor": [
          0.49,
          0.41,
          0.15,
          1
        ],
        "metallicFactor": 0,
        "roughnessFactor": 0.9699476628648295
      },
      "doubleSided": true,
      "name": "lambert3SG"
    },
    {
      "pbrMetallicRoughness": {
        "baseColorFactor": [
          0.08,
          0.19,
          0.02,
          1
        ],
        "metallicFactor": 0,
        "roughnessFactor": 0.9699476628648295
      },
      "doubleSided": true,
      "name": "lambert4SG"
    },
    {
      "pbrMetallicRoughness": {
        "baseColorFactor": [
          0.25,
          0.08,
          0.01,
          1
        ],
        "metallicFactor": 0,
        "roughnessFactor": 0.9699476628648295
      },
      "doubleSided": true,
      "name": "lambert6SG"
    },
    {
      "pbrMetallicRoughness": {
        "baseColorFactor": [
          0.12,
          0.02,
          0.01,
          1
        ],
        "metallicFactor": 0,
        "roughnessFactor": 0.9699476628648295
      },
      "doubleSided": true,
      "name": "lambert2SG"
    },
    {
      "pbrMetallicRoughness": {
        "baseColorFactor": [
          0.03,
          0.03,
          0.03,
          1
        ],
        "metallicFactor": 0,
        "roughnessFactor": 0.9699476628648295
      },
      "doubleSided": true,
      "name": "lambert7SG"
    }
  ],
  "meshes": [
    {
      "primitives": [
        {
          "mode": 4,
          "attributes": {
            "NORMAL": 0,
            "POSITION": 1,
            "TEXCOORD_0": 2
          },
          "indices": 3,
          "material": 0
        }
      ]
    },
    {
      "primitives": [
        {
          "mode": 4,
          "attributes": {
            "NORMAL": 4,
            "POSITION": 5,
            "TEXCOORD_0": 6
          },
          "indices": 7,
          "material": 1
        }
      ]
    },
    {
      "primitives": [
        {
          "mode": 4,
          "attributes": {
            "NORMAL": 8,
            "POSITION": 9,
            "TEXCOORD_0": 10
          },
          "indices": 11,
          "material": 2
        }
      ]
    },
    {
      "primitives": [
        {
          "mode": 4,
          "attributes": {
            "NORMAL": 12,
            "POSITION": 13,
            "TEXCOORD_0": 14
          },
          "indices": 15,
          "material": 3
        }
      ]
    },
    {
      "primitives": [
        {
          "mode": 4,
          "attributes": {
            "NORMAL": 16,
            "POSITION": 17,
            "TEXCOORD_0": 18
          },
          "indices": 19,
          "material": 4
        }
      ]
    },
    {
      "primitives": [
        {
          "mode": 4,
          "attributes": {
            "NORMAL": 20,
            "POSITION": 21,
            "TEXCOORD_0": 22
          },
          "indices": 23,
          "material": 5
        }
      ]
    }
  ]
}